<?xml version="1.0" encoding="UTF-8" standalone="no"?>
<svg
   xmlns:dc="http://purl.org/dc/elements/1.1/"
   xmlns:cc="http://creativecommons.org/ns#"
   xmlns:rdf="http://www.w3.org/1999/02/22-rdf-syntax-ns#"
   xmlns:svg="http://www.w3.org/2000/svg"
   xmlns="http://www.w3.org/2000/svg"
   viewBox="0 0 964.22668 215.39999"
   height="215.39999"
   width="964.22668"
   xml:space="preserve"
   id="svg2"
   version="1.1"><metadata
     id="metadata8"><rdf:RDF><cc:Work
         rdf:about=""><dc:format>image/svg+xml</dc:format><dc:type
           rdf:resource="http://purl.org/dc/dcmitype/StillImage" /></cc:Work></rdf:RDF></metadata><defs
     id="defs6" /><g
     transform="matrix(1.3333333,0,0,-1.3333333,0,215.4)"
     id="g10"><g
       transform="scale(0.1)"
       id="g12"><path
         id="path14"
         style="fill:#f4731c;fill-opacity:1;fill-rule:nonzero;stroke:none"
         d="m 965.336,1123.45 c 0,-72.02 -58.375,-130.391 -130.387,-130.391 -72.008,0 -130.383,58.371 -130.383,130.391 0,72 58.375,130.38 130.383,130.38 72.012,0 130.387,-58.38 130.387,-130.38" /><path
         id="path16"
         style="fill:#f4731c;fill-opacity:1;fill-rule:nonzero;stroke:none"
         d="m 1327.05,1411.55 c 0,-112.66 -91.33,-203.99 -203.99,-203.99 -112.66,0 -203.99,91.33 -203.99,203.99 0,112.66 91.33,203.99 203.99,203.99 112.66,0 203.99,-91.33 203.99,-203.99" /><path
         id="path18"
         style="fill:#0e1625;fill-opacity:1;fill-rule:nonzero;stroke:none"
         d="M 625.059,680.645 C 625.059,794.836 531.906,888 417.703,888 c -114.187,0 -207.34,-93.164 -207.34,-207.355 0,-115.696 93.153,-207.356 207.34,-207.356 114.203,0 207.356,91.66 207.356,207.356 z M 0,680.645 C 0,910.531 187.816,1098.35 417.703,1098.35 647.594,1098.35 835.41,910.531 835.41,680.645 835.41,449.262 647.594,262.941 417.703,262.941 187.816,262.941 0,449.262 0,680.645" /><path
         id="path20"
         style="fill:#0e1625;fill-opacity:1;fill-rule:nonzero;stroke:none"
         d="m 1146.44,659.609 c 0,-114.187 91.66,-205.839 207.34,-205.839 114.2,0 207.36,91.652 207.36,205.839 0,115.7 -93.16,208.856 -207.36,208.856 -115.68,0 -207.34,-93.156 -207.34,-208.856 z m 0,-320.039 V 0 H 936.078 v 659.609 c 0,231.387 186.322,419.201 417.702,419.201 229.89,0 417.71,-187.814 417.71,-419.201 0,-229.89 -187.82,-416.211 -417.71,-416.211 -84.14,0 -160.76,37.571 -207.34,96.172" /><path
         id="path22"
         style="fill:#0e1625;fill-opacity:1;fill-rule:nonzero;stroke:none"
         d="m 2383.03,775.309 c 7.5,54.093 -36.07,145.738 -165.29,145.738 -111.19,0 -166.78,-81.133 -166.78,-145.738 z m -560.45,-88.657 c 0,216.368 142.74,420.708 387.65,419.208 267.45,-1.5 453.77,-211.856 378.64,-512.36 h -536.41 c 10.52,-72.121 96.16,-141.238 198.34,-141.238 55.59,-1.5 151.75,24.039 178.8,61.597 L 2588.87,392.16 c -81.14,-91.66 -211.86,-127.719 -359.1,-127.719 -243.41,0 -407.19,214.868 -407.19,422.211" /><path
         id="path24"
         style="fill:#0e1625;fill-opacity:1;fill-rule:nonzero;stroke:none"
         d="m 2718.09,1083.32 h 199.84 v -93.152 c 37.56,72.122 153.25,97.662 249.41,93.152 V 872.969 c -121.7,21.035 -238.9,-55.59 -238.9,-181.813 V 279.469 h -210.35 v 803.851" /><path
         id="path26"
         style="fill:#0e1625;fill-opacity:1;fill-rule:nonzero;stroke:none"
         d="m 3293.54,872.969 h -96.16 v 210.351 h 96.16 c 0,178.81 126.22,387.66 467.29,280.97 l -40.57,-193.82 c -117.2,42.07 -222.37,6.01 -222.37,-87.15 h 223.88 V 872.969 H 3503.9 v -593.5 h -210.36 v 593.5" /><path
         id="path28"
         style="fill:#0e1625;fill-opacity:1;fill-rule:nonzero;stroke:none"
         d="M 4370.85,680.645 C 4370.85,794.836 4277.7,888 4163.5,888 c -114.19,0 -207.35,-93.164 -207.35,-207.355 0,-115.696 93.16,-207.356 207.35,-207.356 114.2,0 207.35,91.66 207.35,207.356 z m -625.05,0 c 0,229.886 187.81,417.705 417.7,417.705 229.89,0 417.7,-187.819 417.7,-417.705 0,-231.383 -187.81,-417.704 -417.7,-417.704 -229.89,0 -417.7,186.321 -417.7,417.704" /><path
         id="path30"
         style="fill:#0e1625;fill-opacity:1;fill-rule:nonzero;stroke:none"
         d="m 5257.35,680.645 c 0,114.191 -93.16,207.355 -207.36,207.355 -114.19,0 -207.34,-93.164 -207.34,-207.355 0,-115.696 93.15,-207.356 207.34,-207.356 114.2,0 207.36,91.66 207.36,207.356 z m -625.05,0 c 0,229.886 187.8,417.705 417.69,417.705 229.89,0 417.71,-187.819 417.71,-417.705 0,-231.383 -187.82,-417.704 -417.71,-417.704 -229.89,0 -417.69,186.321 -417.69,417.704" /><path
         id="path32"
         style="fill:#0e1625;fill-opacity:1;fill-rule:nonzero;stroke:none"
         d="m 6148.34,671.633 c 0,114.187 -91.66,207.344 -207.36,207.344 -114.19,0 -207.34,-93.157 -207.34,-207.344 0,-115.703 93.15,-207.352 207.34,-207.352 115.7,0 207.36,91.649 207.36,207.352 z m -625.05,0 c 0,229.887 187.8,417.707 417.69,417.707 84.15,0 160.78,-39.07 207.36,-96.164 v 338.074 h 210.35 V 623.547 c 0,-87.149 49.58,-126.215 88.65,-126.215 V 279.469 c -84.15,0 -160.77,10.519 -214.86,111.191 -69.12,-87.148 -159.27,-136.73 -291.5,-136.73 -229.89,0 -417.69,186.308 -417.69,417.703" /><path
         id="path34"
         style="fill:#0e1625;fill-opacity:1;fill-rule:nonzero;stroke:none"
         d="m 6552.51,528.891 c 187.82,-106.68 461.27,-150.25 461.27,-19.532 0,114.188 -527.38,66.11 -512.35,371.125 19.53,265.946 414.69,315.526 712.19,118.696 l -85.64,-144.239 c -159.26,123.204 -402.68,114.192 -407.19,13.524 -4.51,-111.195 510.87,-85.652 510.87,-350.094 0,-252.422 -296,-389.152 -752.77,-163.769 l 73.62,174.289" /></g></g></svg>